<svg width="392" height="141" viewBox="0 0 392 141" fill="none" xmlns="http://www.w3.org/2000/svg">
<path d="M213.688 140.743H222.758C249.969 139.466 269.016 119.457 269.016 95.6171C269.016 87.5286 267.202 79.44 263.121 73.0543H213.688V140.743Z" fill="#FF000F"/>
<path d="M209.152 72.6286H163.801V140.743H209.152V72.6286Z" fill="#FF000F"/>
<path d="M260.4 68.3714C255.864 62.4114 249.515 57.7286 242.712 54.3229C250.876 48.7886 256.318 39.8486 256.318 30.0571C256.318 13.4543 242.259 0.257141 224.572 0.257141H213.688V68.3714H260.4Z" fill="#FF000F"/>
<path d="M209.152 0.257141H163.801V68.3714H209.152V0.257141Z" fill="#FF000F"/>
<path d="M336.137 140.743H345.207C372.418 139.466 391.466 119.457 391.466 95.6171C391.466 87.5286 389.651 79.44 385.57 73.0543H336.137V140.743Z" fill="#FF000F"/>
<path d="M331.601 72.6286H286.25V140.743H331.601V72.6286Z" fill="#FF000F"/>
<path d="M382.849 68.3714C378.314 62.4114 371.964 57.7286 365.162 54.3229C373.325 48.7886 378.767 39.8486 378.767 30.0571C378.767 13.4543 364.708 0.257141 347.021 0.257141H336.137V68.3714H382.849Z" fill="#FF000F"/>
<path d="M331.601 0.257141H286.25V68.3714H331.601V0.257141Z" fill="#FF000F"/>
<path d="M26.3855 72.6286L0.535156 140.743H38.1769L49.0612 110.943H73.0975V72.6286H26.3855Z" fill="#FF000F"/>
<path d="M73.0976 0.257141H53.5964L27.7461 68.3714H73.0976V0.257141Z" fill="#FF000F"/>
<path d="M77.6328 110.943H101.669L112.553 140.743H150.195L124.345 72.6286H77.6328V110.943Z" fill="#FF000F"/>
<path d="M122.984 68.3714L97.1339 0.257141H77.6328V68.3714H122.984Z" fill="#FF000F"/>
</svg>
